<svg width="24" height="24" viewBox="0 0 24 24" fill="none" xmlns="http://www.w3.org/2000/svg">
<path d="M12 21.9999V12.9999M12 21.9999L9.49996 19.9999M12 21.9999L14.5 19.9999M5.03396 9.11694C4.08817 9.35494 3.26184 9.9301 2.71021 10.7344C2.15859 11.5387 1.91964 12.5167 2.03827 13.4847C2.15689 14.4528 2.62492 15.3442 3.35443 15.9914C4.08393 16.6387 5.02469 16.9974 5.99996 16.9999H6.99996" stroke="#353535" stroke-width="2" stroke-linecap="round" stroke-linejoin="round"/>
<path d="M15.8299 7.13796C15.4881 5.78453 14.6445 4.6117 13.47 3.85722C12.2956 3.10274 10.8782 2.82305 9.50517 3.07487C8.13215 3.32668 6.90625 4.09115 6.07598 5.2133C5.2457 6.33545 4.87318 7.73133 5.03392 9.11796C5.03392 9.11796 5.18692 9.99996 5.49992 10.5" stroke="#353535" stroke-width="2" stroke-linecap="round" stroke-linejoin="round"/>
<path d="M17 17C17.706 16.9995 18.404 16.8495 19.0479 16.5599C19.6917 16.2702 20.267 15.8475 20.7357 15.3195C21.2045 14.7915 21.5561 14.1702 21.7674 13.4965C21.9787 12.8229 22.045 12.1121 21.9618 11.4109C21.8786 10.7098 21.6479 10.0343 21.2848 9.42874C20.9217 8.82321 20.4345 8.30145 19.8552 7.89778C19.276 7.49412 18.6178 7.21772 17.924 7.08676C17.2302 6.9558 16.5166 6.97327 15.83 7.138L14.5 7.5" stroke="#353535" stroke-width="2" stroke-linecap="round" stroke-linejoin="round"/>
</svg>
